<?xml version="1.0" encoding="UTF-8"?>
<!DOCTYPE svg PUBLIC "-//W3C//DTD SVG 1.1//EN" "http://www.w3.org/Graphics/SVG/1.1/DTD/svg11.dtd">
<svg xmlns="http://www.w3.org/2000/svg" version="1.1" width="27px" height="27px" style="shape-rendering:geometricPrecision; text-rendering:geometricPrecision; image-rendering:optimizeQuality; fill-rule:evenodd; clip-rule:evenodd" xmlns:xlink="http://www.w3.org/1999/xlink">
<g><path style="opacity:0.855" fill="#5f2969" d="M 7.5,-0.5 C 11.1667,-0.5 14.8333,-0.5 18.5,-0.5C 21.5,1.83333 24.1667,4.5 26.5,7.5C 26.5,11.1667 26.5,14.8333 26.5,18.5C 25.1964,19.9869 24.0298,21.6536 23,23.5C 21.3484,24.3994 19.8484,25.3994 18.5,26.5C 17.1667,26.5 15.8333,26.5 14.5,26.5C 14.5,23.1667 14.5,19.8333 14.5,16.5C 16.3588,16.5391 17.6921,15.7058 18.5,14C 17.2068,13.51 15.8734,13.3433 14.5,13.5C 14.1058,10.1429 15.4391,7.80955 18.5,6.5C 12.699,4.96493 10.3657,7.29826 11.5,13.5C 10.1266,13.3433 8.79323,13.51 7.5,14C 8.83333,14.6667 8.83333,15.3333 7.5,16C 8.79323,16.49 10.1266,16.6567 11.5,16.5C 11.5,19.8333 11.5,23.1667 11.5,26.5C 10.1667,26.5 8.83333,26.5 7.5,26.5C 4.16667,24.5 1.5,21.8333 -0.5,18.5C -0.5,14.8333 -0.5,11.1667 -0.5,7.5C 1.83333,4.5 4.5,1.83333 7.5,-0.5 Z"/></g>
</svg>
