<?xml version="1.0" encoding="UTF-8"?>
<!DOCTYPE svg PUBLIC "-//W3C//DTD SVG 1.1//EN" "http://www.w3.org/Graphics/SVG/1.1/DTD/svg11.dtd">
<svg xmlns="http://www.w3.org/2000/svg" version="1.1" width="29px" height="37px" style="shape-rendering:geometricPrecision; text-rendering:geometricPrecision; image-rendering:optimizeQuality; fill-rule:evenodd; clip-rule:evenodd" xmlns:xlink="http://www.w3.org/1999/xlink">
<g><path style="opacity:0.985" fill="#672f6e" d="M 28.5,7.5 C 28.5,14.1667 28.5,20.8333 28.5,27.5C 27.6836,29.1436 26.3502,30.3103 24.5,31C 17.5,31.6667 10.5,31.6667 3.5,31C 1.64977,30.3103 0.316435,29.1436 -0.5,27.5C -0.5,20.8333 -0.5,14.1667 -0.5,7.5C 0.451114,5.88201 1.78445,4.54868 3.5,3.5C 10.5,2.16667 17.5,2.16667 24.5,3.5C 26.2156,4.54868 27.5489,5.88201 28.5,7.5 Z"/></g>
<g><path style="opacity:0.985" fill="#6b2f74" d="M 19.5,9.5 C 19.369,10.2389 19.5357,10.9056 20,11.5C 22.0581,10.8905 22.8914,9.89051 22.5,8.5C 23.1924,9.02527 23.6924,9.69194 24,10.5C 24.4992,15.1548 24.6658,19.8215 24.5,24.5C 18.9075,26.4434 13.2408,26.7768 7.5,25.5C 6.37536,24.9859 5.20869,24.6526 4,24.5C 3.21902,19.4456 3.38569,14.4456 4.5,9.5C 8.43698,8.68846 13.437,8.68846 19.5,9.5 Z"/></g>
<g><path style="opacity:0.924" fill="#66336f" d="M 14.5,22.5 C 14.1667,21.1667 13.8333,21.1667 13.5,22.5C 8.14793,18.8145 8.3146,15.1478 14,11.5C 19.6854,15.1478 19.8521,18.8145 14.5,22.5 Z"/></g>
</svg>
